<?xml version="1.0" standalone="no"?><!DOCTYPE svg PUBLIC "-//W3C//DTD SVG 1.1//EN" "http://www.w3.org/Graphics/SVG/1.1/DTD/svg11.dtd"><svg t="1732618078222" class="icon" viewBox="0 0 1024 1024" version="1.1" xmlns="http://www.w3.org/2000/svg" p-id="1098" xmlns:xlink="http://www.w3.org/1999/xlink" width="200" height="200"><path d="M0 0m182.570457 0l658.859086 0q182.570457 0 182.570457 182.570457l0 658.859086q0 182.570457-182.570457 182.570457l-658.859086 0q-182.570457 0-182.570457-182.570457l0-658.859086q0-182.570457 182.570457-182.570457Z" fill="#008F7A" p-id="1099"></path><path d="M789.371648 339.090329a70.557272 70.557272 0 0 0-70.557271-70.557272H305.185623a70.535635 70.535635 0 0 0-70.535635 70.557272v391.494411a70.535635 70.535635 0 0 0 70.535635 70.535635H613.400385l175.971263-200.269275z" fill="#FFFFFF" opacity=".56" p-id="1100"></path><path d="M315.333235 355.685676m33.190694 0l326.952142 0q33.190695 0 33.190694 33.190695l0 0.021636q0 33.190695-33.190694 33.190695l-326.952142 0q-33.190695 0-33.190694-33.190695l0-0.021636q0-33.190695 33.190694-33.190695Z" fill="#FFFFFF" opacity=".56" p-id="1101"></path><path d="M320.417859 591.54732m33.190694 0l136.981934 0q33.190695 0 33.190695 33.190694l0 0.021637q0 33.190695-33.190695 33.190694l-136.981934 0q-33.190695 0-33.190694-33.190694l0-0.021637q0-33.190695 33.190694-33.190694Z" fill="#FFFFFF" opacity=".56" p-id="1102"></path><path d="M369.511526 222.879625m33.190695 0l0.021636 0q33.190695 0 33.190695 33.190694l0 29.079722q0 33.190695-33.190695 33.190695l-0.021636 0q-33.190695 0-33.190695-33.190695l0-29.079722q0-33.190695 33.190695-33.190694Z" fill="#FFFFFF" opacity=".56" p-id="1103"></path><path d="M588.085448 222.879625m33.190695 0l0.021636 0q33.190695 0 33.190695 33.190694l0 29.079722q0 33.190695-33.190695 33.190695l-0.021636 0q-33.190695 0-33.190695-33.190695l0-29.079722q0-33.190695 33.190695-33.190694Z" fill="#FFFFFF" opacity=".56" p-id="1104"></path><path d="M315.333235 474.644241m33.190694 0l326.952142 0q33.190695 0 33.190694 33.190695l0 0.021636q0 33.190695-33.190694 33.190695l-326.952142 0q-33.190695 0-33.190694-33.190695l0-0.021636q0-33.190695 33.190694-33.190695Z" fill="#FFFFFF" opacity=".56" p-id="1105"></path><path d="M615.672238 799.64908l-13.479663-101.49775a70.557272 70.557272 0 0 1 60.582754-79.233587l125.189934-16.616984z" fill="#FFFFFF" opacity=".56" p-id="1106"></path></svg>